<?xml version="1.0" encoding="UTF-8" standalone="no"?>
<!DOCTYPE svg PUBLIC "-//W3C//DTD SVG 1.1//EN"
 "http://www.w3.org/Graphics/SVG/1.1/DTD/svg11.dtd">
<!-- Generated by graphviz version 14.1.5 (20260411.2331)
 -->
<!-- Title: LedgerUI Pages: 1 -->
<svg width="537pt" height="456pt"
 viewBox="0.00 0.00 537.00 456.00" xmlns="http://www.w3.org/2000/svg" xmlns:xlink="http://www.w3.org/1999/xlink">
<g id="graph0" class="graph" transform="scale(1 1) rotate(0) translate(7.2 448.42)">
<title>LedgerUI</title>
<polygon fill="white" stroke="none" points="-7.2,7.2 -7.2,-448.42 530.2,-448.42 530.2,7.2 -7.2,7.2"/>
<g id="clust1" class="cluster">
<title>cluster_fetch</title>
<path fill="#f1f5f9" stroke="#cbd5e1" d="M20,-220.11C20,-220.11 117,-220.11 117,-220.11 123,-220.11 129,-226.11 129,-232.11 129,-232.11 129,-307.79 129,-307.79 129,-313.79 123,-319.79 117,-319.79 117,-319.79 20,-319.79 20,-319.79 14,-319.79 8,-313.79 8,-307.79 8,-307.79 8,-232.11 8,-232.11 8,-226.11 14,-220.11 20,-220.11"/>
<text xml:space="preserve" text-anchor="middle" x="49.75" y="-307.24" font-family="Inter" font-size="9.00">useTransactions</text>
</g>
<g id="clust2" class="cluster">
<title>cluster_buffer</title>
<path fill="#f1f5f9" stroke="#cbd5e1" d="M71,-8C71,-8 166,-8 166,-8 172,-8 178,-14 178,-20 178,-20 178,-183.86 178,-183.86 178,-189.86 172,-195.86 166,-195.86 166,-195.86 71,-195.86 71,-195.86 65,-195.86 59,-189.86 59,-183.86 59,-183.86 59,-20 59,-20 59,-14 65,-8 71,-8"/>
<text xml:space="preserve" text-anchor="middle" x="106" y="-183.31" font-family="Inter" font-size="9.00">buffer + saveStatus</text>
</g>
<g id="clust3" class="cluster">
<title>cluster_chat</title>
<path fill="#f1f5f9" stroke="#cbd5e1" d="M410,-220.11C410,-220.11 503,-220.11 503,-220.11 509,-220.11 515,-226.11 515,-232.11 515,-232.11 515,-421.22 515,-421.22 515,-427.22 509,-433.22 503,-433.22 503,-433.22 410,-433.22 410,-433.22 404,-433.22 398,-427.22 398,-421.22 398,-421.22 398,-232.11 398,-232.11 398,-226.11 404,-220.11 410,-220.11"/>
<text xml:space="preserve" text-anchor="middle" x="435.25" y="-420.67" font-family="Inter" font-size="9.00">useAgentChat</text>
</g>
<g id="clust4" class="cluster">
<title>cluster_tool</title>
<path fill="#f1f5f9" stroke="#cbd5e1" d="M149,-270.2C149,-270.2 238,-270.2 238,-270.2 244,-270.2 250,-276.2 250,-282.2 250,-282.2 250,-421.22 250,-421.22 250,-427.22 244,-433.22 238,-433.22 238,-433.22 149,-433.22 149,-433.22 143,-433.22 137,-427.22 137,-421.22 137,-421.22 137,-282.2 137,-282.2 137,-276.2 143,-270.2 149,-270.2"/>
<text xml:space="preserve" text-anchor="middle" x="167.12" y="-420.67" font-family="Inter" font-size="9.00">onToolCall</text>
</g>
<g id="clust5" class="cluster">
<title>cluster_prop</title>
<path fill="#f1f5f9" stroke="#cbd5e1" d="M270,-146.27C270,-146.27 378,-146.27 378,-146.27 384,-146.27 390,-152.27 390,-158.27 390,-158.27 390,-309.29 390,-309.29 390,-315.29 384,-321.29 378,-321.29 378,-321.29 270,-321.29 270,-321.29 264,-321.29 258,-315.29 258,-309.29 258,-309.29 258,-158.27 258,-158.27 258,-152.27 264,-146.27 270,-146.27"/>
<text xml:space="preserve" text-anchor="middle" x="323.75" y="-308.74" font-family="Inter" font-size="9.00">propose_* → applyProposal</text>
</g>
<!-- f_load -->
<g id="node1" class="node">
<title>f_load</title>
<path fill="#e0f2fe" stroke="#0284c7" d="M83.32,-294.04C83.32,-294.04 50.68,-294.04 50.68,-294.04 48.04,-294.04 45.4,-291.4 45.4,-288.76 45.4,-288.76 45.4,-283.48 45.4,-283.48 45.4,-280.84 48.04,-278.2 50.68,-278.2 50.68,-278.2 83.32,-278.2 83.32,-278.2 85.96,-278.2 88.6,-280.84 88.6,-283.48 88.6,-283.48 88.6,-288.76 88.6,-288.76 88.6,-291.4 85.96,-294.04 83.32,-294.04"/>
<text xml:space="preserve" text-anchor="middle" x="67" y="-282.45" font-family="Inter" font-size="9.00" fill="#0f172a">loading</text>
</g>
<!-- f_idle -->
<g id="node2" class="node">
<title>f_idle</title>
<path fill="#dcfce7" stroke="#16a34a" d="M62.32,-243.95C62.32,-243.95 29.68,-243.95 29.68,-243.95 27.04,-243.95 24.4,-241.31 24.4,-238.67 24.4,-238.67 24.4,-233.39 24.4,-233.39 24.4,-230.75 27.04,-228.11 29.68,-228.11 29.68,-228.11 62.32,-228.11 62.32,-228.11 64.96,-228.11 67.6,-230.75 67.6,-233.39 67.6,-233.39 67.6,-238.67 67.6,-238.67 67.6,-241.31 64.96,-243.95 62.32,-243.95"/>
<text xml:space="preserve" text-anchor="middle" x="46" y="-232.36" font-family="Inter" font-size="9.00" fill="#0f172a">idle</text>
</g>
<!-- f_load&#45;&gt;f_idle -->
<g id="edge1" class="edge">
<title>f_load&#45;&gt;f_idle</title>
<path fill="none" stroke="#475569" d="M46.76,-277.88C39.78,-274.3 32.72,-269.21 28.75,-262.2 26.31,-257.89 27.95,-253.37 31.02,-249.37"/>
<polygon fill="#475569" stroke="#475569" points="32.4,-250.71 34.8,-245.4 29.61,-248.06 32.4,-250.71"/>
<text xml:space="preserve" text-anchor="middle" x="34.38" y="-255.55" font-family="JetBrains Mono" font-size="7.00" fill="#334155">200</text>
</g>
<!-- f_err -->
<g id="node3" class="node">
<title>f_err</title>
<path fill="#fee2e2" stroke="#dc2626" d="M115.32,-243.95C115.32,-243.95 82.68,-243.95 82.68,-243.95 80.04,-243.95 77.4,-241.31 77.4,-238.67 77.4,-238.67 77.4,-233.39 77.4,-233.39 77.4,-230.75 80.04,-228.11 82.68,-228.11 82.68,-228.11 115.32,-228.11 115.32,-228.11 117.96,-228.11 120.6,-230.75 120.6,-233.39 120.6,-233.39 120.6,-238.67 120.6,-238.67 120.6,-241.31 117.96,-243.95 115.32,-243.95"/>
<text xml:space="preserve" text-anchor="middle" x="99" y="-232.36" font-family="Inter" font-size="9.00" fill="#0f172a">error</text>
</g>
<!-- f_load&#45;&gt;f_err -->
<g id="edge2" class="edge">
<title>f_load&#45;&gt;f_err</title>
<path fill="none" stroke="#475569" d="M70.9,-277.75C74.4,-271.3 79.82,-261.78 85.25,-253.95 86.23,-252.53 87.3,-251.09 88.39,-249.67"/>
<polygon fill="#475569" stroke="#475569" points="89.71,-251.1 91.64,-245.6 86.7,-248.69 89.71,-251.1"/>
<text xml:space="preserve" text-anchor="middle" x="90.12" y="-255.55" font-family="JetBrains Mono" font-size="7.00" fill="#334155">!ok</text>
</g>
<!-- f_idle&#45;&gt;f_load -->
<g id="edge3" class="edge">
<title>f_idle&#45;&gt;f_load</title>
<path fill="none" stroke="#475569" d="M48.26,-244.18C49.95,-249.28 52.39,-256.25 55,-262.2 56.41,-265.42 58.08,-268.82 59.73,-271.99"/>
<polygon fill="#475569" stroke="#475569" points="57.95,-272.74 62.24,-276.69 61.34,-270.93 57.95,-272.74"/>
<text xml:space="preserve" text-anchor="middle" x="62.5" y="-255.55" font-family="JetBrains Mono" font-size="7.00" fill="#334155">page</text>
</g>
<!-- b_clean -->
<g id="node4" class="node">
<title>b_clean</title>
<path fill="#dcfce7" stroke="#16a34a" d="M131.32,-170.11C131.32,-170.11 98.68,-170.11 98.68,-170.11 96.04,-170.11 93.4,-167.47 93.4,-164.83 93.4,-164.83 93.4,-159.55 93.4,-159.55 93.4,-156.91 96.04,-154.27 98.68,-154.27 98.68,-154.27 131.32,-154.27 131.32,-154.27 133.96,-154.27 136.6,-156.91 136.6,-159.55 136.6,-159.55 136.6,-164.83 136.6,-164.83 136.6,-167.47 133.96,-170.11 131.32,-170.11"/>
<text xml:space="preserve" text-anchor="middle" x="115" y="-158.51" font-family="Inter" font-size="9.00" fill="#0f172a">clean</text>
</g>
<!-- f_idle&#45;&gt;b_clean -->
<g id="edge25" class="edge">
<title>f_idle&#45;&gt;b_clean</title>
<path fill="none" stroke="#7c3aed" stroke-dasharray="5,2" d="M60.33,-220.11C65.77,-214.44 72.25,-207.7 78.81,-200.87"/>
<polygon fill="#7c3aed" stroke="#7c3aed" points="80.15,-202.25 82.58,-196.95 77.38,-199.58 80.15,-202.25"/>
<text xml:space="preserve" text-anchor="middle" x="87.07" y="-205.46" font-family="JetBrains Mono" font-size="7.00" fill="#6d28d9">baseline</text>
</g>
<!-- f_err&#45;&gt;f_load -->
<g id="edge4" class="edge">
<title>f_err&#45;&gt;f_load</title>
<path fill="none" stroke="#475569" d="M98.47,-244.08C97.81,-249.38 96.33,-256.66 93,-262.2 90.5,-266.36 87,-270.17 83.37,-273.44"/>
<polygon fill="#475569" stroke="#475569" points="82.25,-271.87 79.23,-276.86 84.7,-274.84 82.25,-271.87"/>
<text xml:space="preserve" text-anchor="middle" x="103.46" y="-255.55" font-family="JetBrains Mono" font-size="7.00" fill="#334155">retry</text>
</g>
<!-- b_dirty -->
<g id="node5" class="node">
<title>b_dirty</title>
<path fill="#fef3c7" stroke="#d97706" d="M126.32,-120.02C126.32,-120.02 93.68,-120.02 93.68,-120.02 91.04,-120.02 88.4,-117.38 88.4,-114.74 88.4,-114.74 88.4,-109.46 88.4,-109.46 88.4,-106.82 91.04,-104.18 93.68,-104.18 93.68,-104.18 126.32,-104.18 126.32,-104.18 128.96,-104.18 131.6,-106.82 131.6,-109.46 131.6,-109.46 131.6,-114.74 131.6,-114.74 131.6,-117.38 128.96,-120.02 126.32,-120.02"/>
<text xml:space="preserve" text-anchor="middle" x="110" y="-108.43" font-family="Inter" font-size="9.00" fill="#0f172a">dirty</text>
</g>
<!-- b_clean&#45;&gt;b_dirty -->
<g id="edge5" class="edge">
<title>b_clean&#45;&gt;b_dirty</title>
<path fill="none" stroke="#475569" d="M110.75,-153.82C108.48,-149.46 105.91,-143.73 104.75,-138.27 103.96,-134.55 104.27,-130.51 105.05,-126.78"/>
<polygon fill="#475569" stroke="#475569" points="106.87,-127.43 106.52,-121.61 103.16,-126.37 106.87,-127.43"/>
<text xml:space="preserve" text-anchor="middle" x="110.38" y="-131.62" font-family="JetBrains Mono" font-size="7.00" fill="#334155">edit</text>
</g>
<!-- b_dirty&#45;&gt;b_clean -->
<g id="edge6" class="edge">
<title>b_dirty&#45;&gt;b_clean</title>
<path fill="none" stroke="#475569" d="M112.03,-120.29C112.79,-123.27 113.57,-126.79 114,-130.02 114.75,-135.63 115.05,-141.85 115.15,-147.25"/>
<polygon fill="#475569" stroke="#475569" points="113.22,-146.97 115.17,-152.46 117.07,-146.95 113.22,-146.97"/>
<text xml:space="preserve" text-anchor="middle" x="123.75" y="-131.62" font-family="JetBrains Mono" font-size="7.00" fill="#334155">revert</text>
</g>
<!-- b_save -->
<g id="node6" class="node">
<title>b_save</title>
<path fill="#e0f2fe" stroke="#0284c7" d="M126.32,-75.93C126.32,-75.93 93.68,-75.93 93.68,-75.93 91.04,-75.93 88.4,-73.29 88.4,-70.65 88.4,-70.65 88.4,-65.37 88.4,-65.37 88.4,-62.73 91.04,-60.09 93.68,-60.09 93.68,-60.09 126.32,-60.09 126.32,-60.09 128.96,-60.09 131.6,-62.73 131.6,-65.37 131.6,-65.37 131.6,-70.65 131.6,-70.65 131.6,-73.29 128.96,-75.93 126.32,-75.93"/>
<text xml:space="preserve" text-anchor="middle" x="110" y="-64.34" font-family="Inter" font-size="9.00" fill="#0f172a">saving</text>
</g>
<!-- b_dirty&#45;&gt;b_save -->
<g id="edge7" class="edge">
<title>b_dirty&#45;&gt;b_save</title>
<path fill="none" stroke="#475569" d="M110,-103.77C110,-98.1 110,-90.07 110,-83.16"/>
<polygon fill="#475569" stroke="#475569" points="111.93,-83.27 110,-77.77 108.08,-83.27 111.93,-83.27"/>
<text xml:space="preserve" text-anchor="middle" x="117.5" y="-87.53" font-family="JetBrains Mono" font-size="7.00" fill="#334155">save</text>
</g>
<!-- b_save&#45;&gt;f_idle -->
<g id="edge28" class="edge">
<title>b_save&#45;&gt;f_idle</title>
<path fill="none" stroke="#7c3aed" stroke-dasharray="5,2" d="M59,-136.22C49.32,-162.13 46.6,-192.94 45.96,-213.19"/>
<polygon fill="#7c3aed" stroke="#7c3aed" points="44.03,-213.06 45.84,-218.6 47.88,-213.14 44.03,-213.06"/>
<text xml:space="preserve" text-anchor="middle" x="81.75" y="-131.62" font-family="JetBrains Mono" font-size="7.00" fill="#6d28d9">replaceRows</text>
</g>
<!-- b_save&#45;&gt;b_clean -->
<g id="edge8" class="edge">
<title>b_save&#45;&gt;b_clean</title>
<path fill="none" stroke="#475569" d="M118.58,-76.35C125.36,-82.84 134.14,-92.99 137,-104.18 140.76,-118.88 141.1,-124.37 135,-138.27 133.27,-142.21 130.62,-145.96 127.81,-149.24"/>
<polygon fill="#475569" stroke="#475569" points="126.76,-147.54 124.41,-152.87 129.57,-150.18 126.76,-147.54"/>
<text xml:space="preserve" text-anchor="middle" x="145.35" y="-109.58" font-family="JetBrains Mono" font-size="7.00" fill="#334155">200</text>
</g>
<!-- b_conf -->
<g id="node7" class="node">
<title>b_conf</title>
<path fill="#fee2e2" stroke="#dc2626" d="M108.32,-31.84C108.32,-31.84 75.68,-31.84 75.68,-31.84 73.04,-31.84 70.4,-29.2 70.4,-26.56 70.4,-26.56 70.4,-21.28 70.4,-21.28 70.4,-18.64 73.04,-16 75.68,-16 75.68,-16 108.32,-16 108.32,-16 110.96,-16 113.6,-18.64 113.6,-21.28 113.6,-21.28 113.6,-26.56 113.6,-26.56 113.6,-29.2 110.96,-31.84 108.32,-31.84"/>
<text xml:space="preserve" text-anchor="middle" x="92" y="-20.25" font-family="Inter" font-size="9.00" fill="#0f172a">conflict</text>
</g>
<!-- b_save&#45;&gt;b_conf -->
<g id="edge9" class="edge">
<title>b_save&#45;&gt;b_conf</title>
<path fill="none" stroke="#475569" d="M89.91,-59.72C85.86,-57.29 82.12,-54.14 79.75,-50.09 77.44,-46.15 78.48,-41.7 80.72,-37.66"/>
<polygon fill="#475569" stroke="#475569" points="82.15,-38.97 83.74,-33.36 79,-36.75 82.15,-38.97"/>
<text xml:space="preserve" text-anchor="middle" x="85.38" y="-43.44" font-family="JetBrains Mono" font-size="7.00" fill="#334155">409</text>
</g>
<!-- b_err -->
<g id="node8" class="node">
<title>b_err</title>
<path fill="#fee2e2" stroke="#dc2626" d="M162.32,-31.84C162.32,-31.84 129.68,-31.84 129.68,-31.84 127.04,-31.84 124.4,-29.2 124.4,-26.56 124.4,-26.56 124.4,-21.28 124.4,-21.28 124.4,-18.64 127.04,-16 129.68,-16 129.68,-16 162.32,-16 162.32,-16 164.96,-16 167.6,-18.64 167.6,-21.28 167.6,-21.28 167.6,-26.56 167.6,-26.56 167.6,-29.2 164.96,-31.84 162.32,-31.84"/>
<text xml:space="preserve" text-anchor="middle" x="146" y="-20.25" font-family="Inter" font-size="9.00" fill="#0f172a">error</text>
</g>
<!-- b_save&#45;&gt;b_err -->
<g id="edge10" class="edge">
<title>b_save&#45;&gt;b_err</title>
<path fill="none" stroke="#475569" d="M116.27,-59.68C121.54,-53.52 129.17,-44.59 135.39,-37.33"/>
<polygon fill="#475569" stroke="#475569" points="136.71,-38.75 138.82,-33.32 133.78,-36.25 136.71,-38.75"/>
<text xml:space="preserve" text-anchor="middle" x="135.72" y="-43.44" font-family="JetBrains Mono" font-size="7.00" fill="#334155">fail</text>
</g>
<!-- b_conf&#45;&gt;b_save -->
<g id="edge11" class="edge">
<title>b_conf&#45;&gt;b_save</title>
<path fill="none" stroke="#475569" d="M95.1,-32.17C97.62,-38.06 101.24,-46.53 104.28,-53.64"/>
<polygon fill="#475569" stroke="#475569" points="102.34,-53.99 106.27,-58.29 105.88,-52.47 102.34,-53.99"/>
<text xml:space="preserve" text-anchor="middle" x="109.74" y="-43.44" font-family="JetBrains Mono" font-size="7.00" fill="#334155">retry</text>
</g>
<!-- b_err&#45;&gt;b_save -->
<g id="edge12" class="edge">
<title>b_err&#45;&gt;b_save</title>
<path fill="none" stroke="#475569" d="M146.5,-32.18C146.51,-37.59 145.71,-44.91 142,-50.09 140.48,-52.21 138.62,-54.08 136.56,-55.74"/>
<polygon fill="#475569" stroke="#475569" points="135.52,-54.12 132.02,-58.78 137.66,-57.32 135.52,-54.12"/>
<text xml:space="preserve" text-anchor="middle" x="152.61" y="-43.44" font-family="JetBrains Mono" font-size="7.00" fill="#334155">retry</text>
</g>
<!-- c_rdy -->
<g id="node9" class="node">
<title>c_rdy</title>
<path fill="#dcfce7" stroke="#16a34a" d="M486.32,-407.47C486.32,-407.47 453.68,-407.47 453.68,-407.47 451.04,-407.47 448.4,-404.83 448.4,-402.19 448.4,-402.19 448.4,-396.91 448.4,-396.91 448.4,-394.27 451.04,-391.63 453.68,-391.63 453.68,-391.63 486.32,-391.63 486.32,-391.63 488.96,-391.63 491.6,-394.27 491.6,-396.91 491.6,-396.91 491.6,-402.19 491.6,-402.19 491.6,-404.83 488.96,-407.47 486.32,-407.47"/>
<text xml:space="preserve" text-anchor="middle" x="470" y="-395.88" font-family="Inter" font-size="9.00" fill="#0f172a">ready</text>
</g>
<!-- c_sub -->
<g id="node10" class="node">
<title>c_sub</title>
<path fill="#e0f2fe" stroke="#0284c7" d="M452.35,-363.38C452.35,-363.38 411.65,-363.38 411.65,-363.38 409,-363.38 406.37,-360.74 406.37,-358.1 406.37,-358.1 406.37,-352.82 406.37,-352.82 406.37,-350.18 409,-347.54 411.65,-347.54 411.65,-347.54 452.35,-347.54 452.35,-347.54 455,-347.54 457.63,-350.18 457.63,-352.82 457.63,-352.82 457.63,-358.1 457.63,-358.1 457.63,-360.74 455,-363.38 452.35,-363.38"/>
<text xml:space="preserve" text-anchor="middle" x="432" y="-351.79" font-family="Inter" font-size="9.00" fill="#0f172a">submitted</text>
</g>
<!-- c_rdy&#45;&gt;c_sub -->
<g id="edge13" class="edge">
<title>c_rdy&#45;&gt;c_sub</title>
<path fill="none" stroke="#475569" d="M463.38,-391.22C457.82,-385.06 449.76,-376.13 443.2,-368.87"/>
<polygon fill="#475569" stroke="#475569" points="444.67,-367.62 439.56,-364.83 441.81,-370.2 444.67,-367.62"/>
<text xml:space="preserve" text-anchor="middle" x="461.9" y="-374.98" font-family="JetBrains Mono" font-size="7.00" fill="#334155">send</text>
</g>
<!-- c_str -->
<g id="node11" class="node">
<title>c_str</title>
<path fill="#e0f2fe" stroke="#0284c7" d="M481.73,-294.04C481.73,-294.04 440.27,-294.04 440.27,-294.04 437.63,-294.04 434.99,-291.4 434.99,-288.76 434.99,-288.76 434.99,-283.48 434.99,-283.48 434.99,-280.84 437.63,-278.2 440.27,-278.2 440.27,-278.2 481.73,-278.2 481.73,-278.2 484.37,-278.2 487.01,-280.84 487.01,-283.48 487.01,-283.48 487.01,-288.76 487.01,-288.76 487.01,-291.4 484.37,-294.04 481.73,-294.04"/>
<text xml:space="preserve" text-anchor="middle" x="461" y="-282.45" font-family="Inter" font-size="9.00" fill="#0f172a">streaming</text>
</g>
<!-- c_sub&#45;&gt;c_str -->
<g id="edge14" class="edge">
<title>c_sub&#45;&gt;c_str</title>
<path fill="none" stroke="#475569" d="M435.1,-347.25C439.88,-336.17 449.09,-314.76 455.15,-300.71"/>
<polygon fill="#475569" stroke="#475569" points="456.82,-301.68 457.23,-295.87 453.29,-300.16 456.82,-301.68"/>
<text xml:space="preserve" text-anchor="middle" x="449.71" y="-330.89" font-family="JetBrains Mono" font-size="7.00" fill="#334155">delta</text>
</g>
<!-- c_err -->
<g id="node12" class="node">
<title>c_err</title>
<path fill="#fee2e2" stroke="#dc2626" d="M477.32,-243.95C477.32,-243.95 444.68,-243.95 444.68,-243.95 442.04,-243.95 439.4,-241.31 439.4,-238.67 439.4,-238.67 439.4,-233.39 439.4,-233.39 439.4,-230.75 442.04,-228.11 444.68,-228.11 444.68,-228.11 477.32,-228.11 477.32,-228.11 479.96,-228.11 482.6,-230.75 482.6,-233.39 482.6,-233.39 482.6,-238.67 482.6,-238.67 482.6,-241.31 479.96,-243.95 477.32,-243.95"/>
<text xml:space="preserve" text-anchor="middle" x="461" y="-232.36" font-family="Inter" font-size="9.00" fill="#0f172a">error</text>
</g>
<!-- c_sub&#45;&gt;c_err -->
<g id="edge16" class="edge">
<title>c_sub&#45;&gt;c_err</title>
<path fill="none" stroke="#475569" d="M428.44,-347.06C421.68,-331.86 408.7,-296.37 421,-270.2 425.28,-261.09 433.43,-253.62 441.26,-248.09"/>
<polygon fill="#475569" stroke="#475569" points="442.31,-249.71 445.85,-245.08 440.19,-246.49 442.31,-249.71"/>
<text xml:space="preserve" text-anchor="middle" x="425.5" y="-283.6" font-family="JetBrains Mono" font-size="7.00" fill="#334155">fail</text>
</g>
<!-- c_str&#45;&gt;c_rdy -->
<g id="edge15" class="edge">
<title>c_str&#45;&gt;c_rdy</title>
<path fill="none" stroke="#475569" d="M463.22,-294.33C467.44,-307.94 477.06,-338.29 486.5,-363.38 487.54,-366.15 489.35,-367.93 490.72,-369.63"/>
<polygon fill="#475569" stroke="#475569" points="488.83,-369.96 491.72,-375.02 492.61,-369.26 488.83,-369.96"/>
<path fill="none" stroke="#475569" d="M492,-378.51C489.87,-383.66 485.62,-388.04 481.42,-391.37"/>
<text xml:space="preserve" text-anchor="middle" x="494.75" y="-352.94" font-family="JetBrains Mono" font-size="7.00" fill="#334155">finish</text>
</g>
<!-- c_str&#45;&gt;c_err -->
<g id="edge17" class="edge">
<title>c_str&#45;&gt;c_err</title>
<path fill="none" stroke="#475569" d="M461,-278.02C461,-270.92 461,-259.8 461,-250.94"/>
<polygon fill="#475569" stroke="#475569" points="462.93,-251.17 461,-245.67 459.08,-251.17 462.93,-251.17"/>
<text xml:space="preserve" text-anchor="middle" x="468.88" y="-255.55" font-family="JetBrains Mono" font-size="7.00" fill="#334155">abort</text>
</g>
<!-- c_err&#45;&gt;c_rdy -->
<g id="edge18" class="edge">
<title>c_err&#45;&gt;c_rdy</title>
<path fill="none" stroke="#475569" d="M470.8,-244.26C478.11,-250.28 487.57,-259.58 492,-270.2 513.78,-322.39 508.04,-340.67 501,-363.38 499.76,-367.39 497.98,-369.06 496.06,-371.07"/>
<polygon fill="#475569" stroke="#475569" points="494.65,-369.73 492.91,-375.29 497.74,-372.03 494.65,-369.73"/>
<text xml:space="preserve" text-anchor="middle" x="514.84" y="-330.89" font-family="JetBrains Mono" font-size="7.00" fill="#334155">clear</text>
</g>
<!-- t_in -->
<g id="node13" class="node">
<title>t_in</title>
<path fill="#e0f2fe" stroke="#0284c7" d="M236.32,-407.47C236.32,-407.47 203.68,-407.47 203.68,-407.47 201.04,-407.47 198.4,-404.83 198.4,-402.19 198.4,-402.19 198.4,-396.91 198.4,-396.91 198.4,-394.27 201.04,-391.63 203.68,-391.63 203.68,-391.63 236.32,-391.63 236.32,-391.63 238.96,-391.63 241.6,-394.27 241.6,-396.91 241.6,-396.91 241.6,-402.19 241.6,-402.19 241.6,-404.83 238.96,-407.47 236.32,-407.47"/>
<text xml:space="preserve" text-anchor="middle" x="220" y="-395.88" font-family="Inter" font-size="9.00" fill="#0f172a">input</text>
</g>
<!-- t_run -->
<g id="node14" class="node">
<title>t_run</title>
<path fill="#e0f2fe" stroke="#0284c7" d="M236.32,-363.38C236.32,-363.38 203.68,-363.38 203.68,-363.38 201.04,-363.38 198.4,-360.74 198.4,-358.1 198.4,-358.1 198.4,-352.82 198.4,-352.82 198.4,-350.18 201.04,-347.54 203.68,-347.54 203.68,-347.54 236.32,-347.54 236.32,-347.54 238.96,-347.54 241.6,-350.18 241.6,-352.82 241.6,-352.82 241.6,-358.1 241.6,-358.1 241.6,-360.74 238.96,-363.38 236.32,-363.38"/>
<text xml:space="preserve" text-anchor="middle" x="220" y="-351.79" font-family="Inter" font-size="9.00" fill="#0f172a">exec</text>
</g>
<!-- t_in&#45;&gt;t_run -->
<g id="edge19" class="edge">
<title>t_in&#45;&gt;t_run</title>
<path fill="none" stroke="#475569" d="M220,-391.22C220,-385.55 220,-377.52 220,-370.61"/>
<polygon fill="#475569" stroke="#475569" points="221.93,-370.72 220,-365.22 218.08,-370.72 221.93,-370.72"/>
<text xml:space="preserve" text-anchor="middle" x="225.25" y="-374.98" font-family="JetBrains Mono" font-size="7.00" fill="#334155">call</text>
</g>
<!-- t_ok -->
<g id="node15" class="node">
<title>t_ok</title>
<path fill="#dcfce7" stroke="#16a34a" d="M183.32,-294.04C183.32,-294.04 150.68,-294.04 150.68,-294.04 148.04,-294.04 145.4,-291.4 145.4,-288.76 145.4,-288.76 145.4,-283.48 145.4,-283.48 145.4,-280.84 148.04,-278.2 150.68,-278.2 150.68,-278.2 183.32,-278.2 183.32,-278.2 185.96,-278.2 188.6,-280.84 188.6,-283.48 188.6,-283.48 188.6,-288.76 188.6,-288.76 188.6,-291.4 185.96,-294.04 183.32,-294.04"/>
<text xml:space="preserve" text-anchor="middle" x="167" y="-282.45" font-family="Inter" font-size="9.00" fill="#0f172a">output</text>
</g>
<!-- t_run&#45;&gt;t_ok -->
<g id="edge20" class="edge">
<title>t_run&#45;&gt;t_ok</title>
<path fill="none" stroke="#475569" d="M213.93,-347.14C208.41,-340.45 200.07,-330.28 193,-321.29 187.49,-314.29 181.47,-306.39 176.6,-299.94"/>
<polygon fill="#475569" stroke="#475569" points="178.26,-298.95 173.42,-295.71 175.19,-301.27 178.26,-298.95"/>
<text xml:space="preserve" text-anchor="middle" x="209.21" y="-330.89" font-family="JetBrains Mono" font-size="7.00" fill="#334155">ok</text>
</g>
<!-- t_err -->
<g id="node16" class="node">
<title>t_err</title>
<path fill="#fee2e2" stroke="#dc2626" d="M236.32,-294.04C236.32,-294.04 203.68,-294.04 203.68,-294.04 201.04,-294.04 198.4,-291.4 198.4,-288.76 198.4,-288.76 198.4,-283.48 198.4,-283.48 198.4,-280.84 201.04,-278.2 203.68,-278.2 203.68,-278.2 236.32,-278.2 236.32,-278.2 238.96,-278.2 241.6,-280.84 241.6,-283.48 241.6,-283.48 241.6,-288.76 241.6,-288.76 241.6,-291.4 238.96,-294.04 236.32,-294.04"/>
<text xml:space="preserve" text-anchor="middle" x="220" y="-282.45" font-family="Inter" font-size="9.00" fill="#0f172a">err</text>
</g>
<!-- t_run&#45;&gt;t_err -->
<g id="edge21" class="edge">
<title>t_run&#45;&gt;t_err</title>
<path fill="none" stroke="#475569" d="M220,-347.25C220,-336.37 220,-315.54 220,-301.48"/>
<polygon fill="#475569" stroke="#475569" points="221.93,-301.49 220,-295.99 218.08,-301.49 221.93,-301.49"/>
<text xml:space="preserve" text-anchor="middle" x="228.62" y="-330.89" font-family="JetBrains Mono" font-size="7.00" fill="#334155">throw</text>
</g>
<!-- p_call -->
<g id="node17" class="node">
<title>p_call</title>
<path fill="#e0f2fe" stroke="#0284c7" d="M304.32,-294.04C304.32,-294.04 271.68,-294.04 271.68,-294.04 269.04,-294.04 266.4,-291.4 266.4,-288.76 266.4,-288.76 266.4,-283.48 266.4,-283.48 266.4,-280.84 269.04,-278.2 271.68,-278.2 271.68,-278.2 304.32,-278.2 304.32,-278.2 306.96,-278.2 309.6,-280.84 309.6,-283.48 309.6,-283.48 309.6,-288.76 309.6,-288.76 309.6,-291.4 306.96,-294.04 304.32,-294.04"/>
<text xml:space="preserve" text-anchor="middle" x="288" y="-282.45" font-family="Inter" font-size="9.00" fill="#0f172a">call</text>
</g>
<!-- t_run&#45;&gt;p_call -->
<g id="edge26" class="edge">
<title>t_run&#45;&gt;p_call</title>
<path fill="none" stroke="#7c3aed" stroke-dasharray="5,2" d="M250,-326.77C251.1,-325.67 252.2,-324.57 253.3,-323.46"/>
<polygon fill="#7c3aed" stroke="#7c3aed" points="254.45,-325.04 256.94,-319.77 251.71,-322.33 254.45,-325.04"/>
<text xml:space="preserve" text-anchor="middle" x="262.99" y="-330.89" font-family="JetBrains Mono" font-size="7.00" fill="#6d28d9">propose_*</text>
</g>
<!-- p_app -->
<g id="node18" class="node">
<title>p_app</title>
<path fill="#e0f2fe" stroke="#0284c7" d="M304.32,-243.95C304.32,-243.95 271.68,-243.95 271.68,-243.95 269.04,-243.95 266.4,-241.31 266.4,-238.67 266.4,-238.67 266.4,-233.39 266.4,-233.39 266.4,-230.75 269.04,-228.11 271.68,-228.11 271.68,-228.11 304.32,-228.11 304.32,-228.11 306.96,-228.11 309.6,-230.75 309.6,-233.39 309.6,-233.39 309.6,-238.67 309.6,-238.67 309.6,-241.31 306.96,-243.95 304.32,-243.95"/>
<text xml:space="preserve" text-anchor="middle" x="288" y="-232.36" font-family="Inter" font-size="9.00" fill="#0f172a">apply</text>
</g>
<!-- p_call&#45;&gt;p_app -->
<g id="edge22" class="edge">
<title>p_call&#45;&gt;p_app</title>
<path fill="none" stroke="#475569" d="M288,-278.02C288,-270.92 288,-259.8 288,-250.94"/>
<polygon fill="#475569" stroke="#475569" points="289.93,-251.17 288,-245.67 286.08,-251.17 289.93,-251.17"/>
</g>
<!-- p_ok -->
<g id="node19" class="node">
<title>p_ok</title>
<path fill="#dcfce7" stroke="#16a34a" d="M304.32,-170.11C304.32,-170.11 271.68,-170.11 271.68,-170.11 269.04,-170.11 266.4,-167.47 266.4,-164.83 266.4,-164.83 266.4,-159.55 266.4,-159.55 266.4,-156.91 269.04,-154.27 271.68,-154.27 271.68,-154.27 304.32,-154.27 304.32,-154.27 306.96,-154.27 309.6,-156.91 309.6,-159.55 309.6,-159.55 309.6,-164.83 309.6,-164.83 309.6,-167.47 306.96,-170.11 304.32,-170.11"/>
<text xml:space="preserve" text-anchor="middle" x="288" y="-158.51" font-family="Inter" font-size="9.00" fill="#0f172a">ok</text>
</g>
<!-- p_app&#45;&gt;p_ok -->
<g id="edge23" class="edge">
<title>p_app&#45;&gt;p_ok</title>
<path fill="none" stroke="#475569" d="M288,-227.61C288,-215.66 288,-191.95 288,-176.87"/>
<polygon fill="#475569" stroke="#475569" points="289.93,-177.26 288,-171.76 286.08,-177.26 289.93,-177.26"/>
<text xml:space="preserve" text-anchor="middle" x="298.88" y="-205.46" font-family="JetBrains Mono" font-size="7.00" fill="#334155">mutate</text>
</g>
<!-- p_bad -->
<g id="node20" class="node">
<title>p_bad</title>
<path fill="#fee2e2" stroke="#dc2626" d="M357.32,-170.11C357.32,-170.11 324.68,-170.11 324.68,-170.11 322.04,-170.11 319.4,-167.47 319.4,-164.83 319.4,-164.83 319.4,-159.55 319.4,-159.55 319.4,-156.91 322.04,-154.27 324.68,-154.27 324.68,-154.27 357.32,-154.27 357.32,-154.27 359.96,-154.27 362.6,-156.91 362.6,-159.55 362.6,-159.55 362.6,-164.83 362.6,-164.83 362.6,-167.47 359.96,-170.11 357.32,-170.11"/>
<text xml:space="preserve" text-anchor="middle" x="341" y="-158.51" font-family="Inter" font-size="9.00" fill="#0f172a">fail</text>
</g>
<!-- p_app&#45;&gt;p_bad -->
<g id="edge24" class="edge">
<title>p_app&#45;&gt;p_bad</title>
<path fill="none" stroke="#475569" d="M296.56,-227.9C301.41,-223.61 307.41,-217.88 312,-212.11 320.87,-200.95 328.96,-186.82 334.33,-176.62"/>
<polygon fill="#475569" stroke="#475569" points="335.95,-177.67 336.75,-171.9 332.53,-175.91 335.95,-177.67"/>
<text xml:space="preserve" text-anchor="middle" x="325.04" y="-205.46" font-family="JetBrains Mono" font-size="7.00" fill="#334155">miss</text>
</g>
<!-- p_ok&#45;&gt;b_dirty -->
<g id="edge27" class="edge">
<title>p_ok&#45;&gt;b_dirty</title>
<path fill="none" stroke="#7c3aed" stroke-dasharray="5,2" d="M258,-153.09C237.88,-147.65 210.44,-140.24 184.65,-133.27"/>
<polygon fill="#7c3aed" stroke="#7c3aed" points="185.27,-131.44 179.46,-131.87 184.27,-135.16 185.27,-131.44"/>
<text xml:space="preserve" text-anchor="middle" x="213.25" y="-131.62" font-family="JetBrains Mono" font-size="7.00" fill="#6d28d9">setBuffer</text>
</g>
</g>
</svg>
