<svg xmlns="http://www.w3.org/2000/svg" version="1.1" height="2048" preserveAspectRatio="none" style="display: block;" viewBox="0 0 2048 2048" width="2048"><metadata><rdf:RDF xmlns:rdf="http://www.w3.org/1999/02/22-rdf-syntax-ns#" xmlns:dc="http://purl.org/dc/elements/1.1/"><rdf:Description><dc:creator>RealFaviconGenerator</dc:creator><dc:source>https://realfavicongenerator.net</dc:source></rdf:Description></rdf:RDF></metadata><path d="M 0 0 L 2048 0 L 2048 2048 L 0 2048 L 0 0 z" fill="rgb(255,255,255)" transform="translate(0,0)"></path><path d="M 1287.84 491.799 C 1327.64 454.909 1368.72 419.43 1411.02 385.428 C 1426.44 373.056 1442 359.514 1457.83 347.695 C 1527.74 295.476 1618.87 265.196 1706.01 282.39 C 1738.05 288.712 1769.46 300.14 1791.79 323.604 C 1804.14 336.594 1811.74 357.252 1810.24 375.529 C 1802.55 426.173 1768.67 485.398 1737.83 525.792 C 1728 538.663 1714.64 551.843 1703.2 561.648 C 1633.69 621.275 1564.05 681.138 1493.97 740.033 C 1519.72 785.484 1539.29 825.46 1556.9 875.119 C 1608.85 1023.32 1615.03 1183.72 1574.63 1335.48 C 1549.62 1427.74 1504.88 1513.47 1443.5 1586.74 C 1432.56 1599.69 1416.19 1619.35 1401.81 1627.56 C 1386.68 1636.39 1368.65 1638.77 1351.75 1634.17 C 1332.57 1628.77 1318 1617.52 1309.32 1599.4 C 1300.6 1581.18 1303.84 1561.79 1305.24 1542.41 C 1306.53 1526.12 1307.39 1509.81 1307.81 1493.48 C 1308.81 1434.46 1304.97 1375.46 1296.34 1317.06 C 1279.59 1202.99 1243.68 1092.56 1190.13 990.458 C 1164.99 1014.73 1142.31 1036.82 1115.37 1059.1 C 1097.06 1075.12 1077.77 1090.45 1059.44 1106.46 C 1054.06 1111.15 1042.31 1120.35 1037.73 1125.05 C 1007.71 1150.37 976.251 1177.28 945.795 1201.78 C 977.181 1334.48 951.912 1463.38 855.593 1561.47 C 847.333 1569.89 840.453 1578.73 830.791 1585.84 C 824.992 1590.1 818.498 1593.31 811.598 1595.35 C 795.444 1600.23 777.992 1598.29 763.31 1589.97 C 727.701 1569.88 731.649 1529.62 725.107 1494.18 C 724.055 1488.49 723.473 1482.4 722.65 1476.63 C 717.996 1445 712.829 1413.44 707.151 1381.97 C 703.703 1362.56 700.151 1339.79 694.783 1321.07 C 678.242 1264.05 640.518 1215.52 589.342 1185.42 C 567.715 1172.81 537.581 1162.01 513.875 1153.04 C 483.75 1141.74 453.683 1130.29 423.675 1118.69 C 416.961 1116.08 410.179 1113.45 403.481 1110.82 C 374.435 1099.39 347.788 1092.48 338.371 1058.92 C 333.896 1043.26 335.972 1026.45 344.125 1012.35 C 364.529 976.548 446.748 936.15 486.53 926.258 C 588.823 900.821 679.724 918.795 768.96 970.462 C 794.068 945.515 819.365 920.759 844.849 896.195 C 869.169 872.655 896.097 847.658 919.588 823.561 C 939.681 802.871 961.137 783.215 981.521 762.789 C 984.613 759.69 987.622 756.782 991.102 754.115 C 964.004 732.37 935.365 709.683 906.45 690.529 C 808.544 625.676 694.978 576.767 581.432 547.027 C 562.017 541.785 542.447 537.136 522.749 533.087 C 476.771 523.986 415.557 524.298 409.18 464.268 C 407.01 445.215 412.564 426.086 424.602 411.158 C 434.059 399.551 449.199 389.657 462.037 381.964 C 528.97 341.855 613.162 320.662 690.105 313.13 C 856.835 296.808 1032.95 339.102 1178.92 419.541 C 1209.99 436.666 1251.99 461.983 1279.49 484.743 C 1282.29 487.069 1285.08 489.422 1287.84 491.799 z" fill="rgb(0,0,0)" transform="translate(0,0)"></path><path d="M 1115.37 1059.1 C 1144.01 1120.73 1166.29 1185.12 1181.85 1251.27 C 1222.86 1422.79 1222.12 1584.86 1189.94 1757.56 C 1148.1 1793.72 1104.99 1835.19 1063.6 1872.61 C 1070.24 1850.46 1075.8 1823.54 1081.13 1800.83 C 1119.13 1639.13 1125.82 1459.42 1090.31 1296.61 C 1081.06 1253.47 1069.06 1210.98 1054.36 1169.38 C 1049.19 1154.5 1043.02 1139.87 1037.73 1125.05 C 1042.31 1120.35 1054.06 1111.15 1059.44 1106.46 C 1077.77 1090.45 1097.06 1075.12 1115.37 1059.1 z" fill="rgb(234,179,8)" transform="translate(0,0)"></path><path d="M 283.548 571.924 C 341.632 579.392 399.222 590.305 456.011 604.607 C 616.958 644.178 795.118 710.879 919.588 823.561 C 896.097 847.658 869.169 872.655 844.849 896.195 C 838.733 888.906 804.267 863.487 794.277 856.463 C 629.969 740.945 385.518 677.743 188.114 659.753 C 220.073 630.638 251.884 601.361 283.548 571.924 z" fill="rgb(234,179,8)" transform="translate(0,0)"></path><metadata><recraft-signature>{"signed_by": "recraft", "signature_b64": "wcF9c99jknDlr92mFX91wBarTQdZ0WurZZVNB0u6JhlKfhnUxZD8B15BDwQDNXQiDXUijHYfuGdbBdgS90+ZCA==", "signing_algo": "Ed25519", "generation_timestamp": 1775326188, "identifier": "7a440bcb-c55b-41e1-a120-b3c73944ef29"}</recraft-signature></metadata></svg>